<svg aria-hidden="true" style="position: absolute; width: 0; height: 0; overflow: hidden;" version="1.1" xmlns="http://www.w3.org/2000/svg" xmlns:xlink="http://www.w3.org/1999/xlink">
<defs>
<symbol id="icon-mist" viewBox="0 0 40 40">
<path d="M3.1 22c0.071-0.348 0.178-0.682 0.317-1v0h26.168c0.138 0.317 0.245 0.652 0.315 1h-26.8zM3 23c0 0.342 0.034 0.677 0.1 1v0h26.8c0.066-0.323 0.1-0.658 0.1-1h-27zM8.101 13c-0.312 0.306-0.596 0.641-0.846 1v0h17.723c0.015-0.165 0.022-0.331 0.022-0.5 0-3.038-2.462-5.5-5.5-5.5-2.203 0-4.103 1.295-4.981 3.165v0c-0.489-0.108-0.997-0.165-1.519-0.165-1.32 0-2.554 0.365-3.608 1h7.215c-0.353-0.213-0.727-0.396-1.118-0.544 0.745-1.458 2.261-2.456 4.010-2.456 2.485 0 4.5 2.015 4.5 4.5 0 0.033-0 0.066-0.001 0.099v0c-0.75-0.383-1.599-0.599-2.499-0.599-1.059 0-2.047 0.299-2.886 0.817-0.217-0.291-0.456-0.564-0.715-0.817h-9.798zM6.674 15c-0.152 0.321-0.281 0.655-0.384 1v0h20.11c-0.183-0.358-0.404-0.693-0.657-1h-19.069zM6.071 17c-0.047 0.327-0.071 0.66-0.071 1v0h20.978c-0.031-0.343-0.093-0.678-0.185-1h-20.722zM5.002 19c-0.379 0.285-0.716 0.621-1 1v0h25.001c-0.285-0.38-0.622-0.717-1.002-1.002v0.002h-22.998zM4 26.003c-0.232-0.309-0.429-0.645-0.585-1.003v0h26.168c-0.156 0.357-0.353 0.692-0.584 1l-24.999 0.003zM4.997 27c0.835 0.628 1.875 1 3.003 1h17.001c1.125 0 2.163-0.372 2.998-1h-23.002zM19.5 4c-0.276 0-0.5 0.216-0.5 0.495v2.009c0 0.274 0.232 0.495 0.5 0.495 0.276 0 0.5-0.216 0.5-0.495v-2.009c0-0.274-0.232-0.495-0.5-0.495v0zM26.233 6.789c-0.195-0.195-0.506-0.201-0.704-0.003l-1.421 1.421c-0.193 0.193-0.186 0.514 0.003 0.704 0.195 0.195 0.506 0.201 0.704 0.003l1.421-1.421c0.193-0.193 0.186-0.514-0.003-0.704v0zM29.022 13.522c0-0.276-0.216-0.5-0.495-0.5h-2.009c-0.274 0-0.495 0.232-0.495 0.5 0 0.276 0.216 0.5 0.495 0.5h2.009c0.274 0 0.495-0.232 0.495-0.5v0zM12.767 6.789c-0.195 0.195-0.201 0.506-0.003 0.704l1.421 1.421c0.193 0.193 0.514 0.186 0.704-0.003 0.195-0.195 0.201-0.506 0.003-0.704l-1.421-1.421c-0.193-0.193-0.514-0.186-0.704 0.003v0z"></path>
</symbol>
<symbol id="icon-broken-clouds" viewBox="0 0 40 40">
<path d="M27.194 19.995c2.115-0.106 3.806-1.854 3.806-3.995 0-1.901-1.334-3.497-3.121-3.901 0.079-0.354 0.121-0.721 0.121-1.099 0-2.761-2.239-5-5-5-1.868 0-3.497 1.025-4.356 2.543-0.637-0.346-1.368-0.543-2.144-0.543-1.728 0-3.229 0.974-3.983 2.404 1.293 0.428 2.44 1.177 3.346 2.153 0.806-0.358 1.698-0.557 2.637-0.557 3.347 0 6.102 2.529 6.461 5.78 0.927 0.527 1.699 1.293 2.234 2.215v0 0zM27 23c0 2.756-2.238 5-4.999 5h-17.001c-2.767 0-4.999-2.239-4.999-5 0-2.051 1.24-3.818 3.012-4.588-0.008-0.136-0.012-0.273-0.012-0.412 0-3.866 3.134-7 7-7 2.298 0 4.337 1.107 5.614 2.817 0.839-0.518 1.828-0.817 2.886-0.817 3.009 0 5.454 2.416 5.499 5.415 1.768 0.771 3.001 2.534 3.001 4.585v0z"></path>
</symbol>
<symbol id="icon-snow" viewBox="0 0 40 40">
<path d="M26.999 14.415c1.768 0.771 3.001 2.534 3.001 4.585 0 2.756-2.238 5-4.999 5h-17.001c-2.767 0-4.999-2.239-4.999-5 0-2.051 1.24-3.818 3.012-4.588v0c-0.008-0.136-0.012-0.273-0.012-0.412 0-3.866 3.134-7 7-7 2.298 0 4.337 1.107 5.614 2.817 0.839-0.518 1.828-0.817 2.886-0.817 3.009 0 5.454 2.416 5.499 5.415v0zM11 26.634v-1.136c0-0.275-0.232-0.498-0.5-0.498-0.276 0-0.5 0.215-0.5 0.498v1.136l-0.984-0.568c-0.238-0.137-0.547-0.048-0.681 0.184-0.138 0.239-0.064 0.54 0.181 0.682l0.984 0.568-0.984 0.568c-0.238 0.137-0.315 0.45-0.181 0.682 0.138 0.239 0.436 0.326 0.681 0.184l0.984-0.568v1.136c0 0.275 0.232 0.498 0.5 0.498 0.276 0 0.5-0.215 0.5-0.498v-1.136l0.984 0.568c0.238 0.137 0.547 0.048 0.681-0.184 0.138-0.239 0.064-0.54-0.181-0.682l-0.984-0.568 0.984-0.568c0.238-0.137 0.315-0.45 0.181-0.682-0.138-0.239-0.436-0.326-0.681-0.184l-0.984 0.568zM23 26.634v-1.136c0-0.275-0.232-0.498-0.5-0.498-0.276 0-0.5 0.215-0.5 0.498v1.136l-0.984-0.568c-0.238-0.137-0.547-0.048-0.681 0.184-0.138 0.239-0.064 0.54 0.181 0.682l0.984 0.568-0.984 0.568c-0.238 0.137-0.315 0.45-0.181 0.682 0.138 0.239 0.436 0.326 0.681 0.184l0.984-0.568v1.136c0 0.275 0.232 0.498 0.5 0.498 0.276 0 0.5-0.215 0.5-0.498v-1.136l0.984 0.568c0.238 0.137 0.547 0.048 0.681-0.184 0.138-0.239 0.064-0.54-0.181-0.682l-0.984-0.568 0.984-0.568c0.238-0.137 0.315-0.45 0.181-0.682-0.138-0.239-0.436-0.326-0.681-0.184l-0.984 0.568zM17 27.634v-1.136c0-0.275-0.232-0.498-0.5-0.498-0.276 0-0.5 0.215-0.5 0.498v1.136l-0.984-0.568c-0.238-0.137-0.547-0.048-0.681 0.184-0.138 0.239-0.064 0.54 0.181 0.682l0.984 0.568-0.984 0.568c-0.238 0.137-0.315 0.45-0.181 0.682 0.138 0.239 0.436 0.326 0.681 0.184l0.984-0.568v1.136c0 0.275 0.232 0.498 0.5 0.498 0.276 0 0.5-0.215 0.5-0.498v-1.136l0.984 0.568c0.238 0.137 0.547 0.048 0.681-0.184 0.138-0.239 0.064-0.54-0.181-0.682l-0.984-0.568 0.984-0.568c0.238-0.137 0.315-0.45 0.181-0.682-0.138-0.239-0.436-0.326-0.681-0.184l-0.984 0.568z"></path>
</symbol>
<symbol id="icon-shower-rain" viewBox="0 0 40 40">
<path d="M26.999 14.415c1.768 0.771 3.001 2.534 3.001 4.585 0 2.756-2.238 5-4.999 5h-17.001c-2.767 0-4.999-2.239-4.999-5 0-2.051 1.24-3.818 3.012-4.588v0c-0.008-0.136-0.012-0.273-0.012-0.412 0-3.866 3.134-7 7-7 2.298 0 4.337 1.107 5.614 2.817 0.839-0.518 1.828-0.817 2.886-0.817 3.009 0 5.454 2.416 5.499 5.415v0zM7 28.857c0-1.444 2.511-3.857 2.511-3.857s2.489 2.414 2.489 3.857c0 1.029-0.813 2.143-2.489 2.143s-2.511-1.029-2.511-2.143v0zM14 29.857c0-1.444 2.511-3.857 2.511-3.857s2.489 2.414 2.489 3.857c0 1.029-0.813 2.143-2.489 2.143s-2.511-1.029-2.511-2.143v0zM21 28.857c0-1.444 2.511-3.857 2.511-3.857s2.489 2.414 2.489 3.857c0 1.029-0.813 2.143-2.489 2.143s-2.511-1.029-2.511-2.143v0z"></path>
</symbol>
<symbol id="icon-thunderstorm" viewBox="0 0 40 40">
<path d="M17.067 21h2.533l-6.1 6.1 1.479-4.1h-2.579l2.3-6h3.9l-1.533 4zM18 24h7.001c2.761 0 4.999-2.244 4.999-5 0-2.052-1.232-3.815-3.001-4.585v0c-0.046-2.998-2.49-5.415-5.499-5.415-1.059 0-2.047 0.299-2.886 0.817-1.276-1.71-3.316-2.817-5.614-2.817-3.866 0-7 3.134-7 7 0 0.138 0.004 0.275 0.012 0.412v0c-1.772 0.77-3.012 2.538-3.012 4.588 0 2.761 2.232 5 4.999 5h5.546l-2.545 7 7-7z"></path>
</symbol>
<symbol id="icon-rain" viewBox="0 0 40 40">
<path d="M24.953 10.219v0c1.228 0.992 2.020 2.501 2.046 4.195 1.768 0.771 3.001 2.534 3.001 4.585 0 2.756-2.238 5-4.999 5h-17.001c-2.767 0-4.999-2.239-4.999-5 0-2.051 1.24-3.818 3.012-4.588-0.008-0.136-0.012-0.273-0.012-0.412 0-3.866 3.134-7 7-7 0.522 0 1.030 0.057 1.519 0.165v0c0.878-1.87 2.778-3.165 4.981-3.165 3.038 0 5.5 2.462 5.5 5.5 0 0.244-0.016 0.484-0.047 0.719zM23.999 9.599c0.001-0.033 0.001-0.066 0.001-0.099 0-2.485-2.015-4.5-4.5-4.5-1.749 0-3.265 0.998-4.010 2.456 1.253 0.477 2.334 1.304 3.124 2.362 0.839-0.518 1.828-0.817 2.886-0.817 0.9 0 1.749 0.216 2.499 0.599v0zM7 28.857c0-1.444 2.511-3.857 2.511-3.857s2.489 2.414 2.489 3.857c0 1.029-0.813 2.143-2.489 2.143s-2.511-1.029-2.511-2.143v0zM14 29.857c0-1.444 2.511-3.857 2.511-3.857s2.489 2.414 2.489 3.857c0 1.029-0.813 2.143-2.489 2.143s-2.511-1.029-2.511-2.143v0zM21 28.857c0-1.444 2.511-3.857 2.511-3.857s2.489 2.414 2.489 3.857c0 1.029-0.813 2.143-2.489 2.143s-2.511-1.029-2.511-2.143v0zM19.5 0c-0.276 0-0.5 0.216-0.5 0.495v2.009c0 0.274 0.232 0.495 0.5 0.495 0.276 0 0.5-0.216 0.5-0.495v-2.009c0-0.274-0.232-0.495-0.5-0.495v0zM26.233 2.789c-0.195-0.195-0.506-0.201-0.704-0.003l-1.421 1.421c-0.193 0.193-0.186 0.514 0.003 0.704 0.195 0.195 0.506 0.201 0.704 0.003l1.421-1.421c0.193-0.193 0.186-0.514-0.003-0.704v0zM29.022 9.522c0-0.276-0.216-0.5-0.495-0.5h-2.009c-0.274 0-0.495 0.232-0.495 0.5 0 0.276 0.216 0.5 0.495 0.5h2.009c0.274 0 0.495-0.232 0.495-0.5v0zM12.767 2.789c-0.195 0.195-0.201 0.506-0.003 0.704l1.421 1.421c0.193 0.193 0.514 0.186 0.704-0.003 0.195-0.195 0.201-0.506 0.003-0.704l-1.421-1.421c-0.193-0.193-0.514-0.186-0.704 0.003v0z"></path>
</symbol>
<symbol id="icon-few-clouds" viewBox="0 0 40 40">
<path d="M24.953 10.219v0c1.228 0.992 2.020 2.501 2.046 4.195 1.768 0.771 3.001 2.534 3.001 4.585 0 2.756-2.238 5-4.999 5h-17.001c-2.767 0-4.999-2.239-4.999-5 0-2.051 1.24-3.818 3.012-4.588-0.008-0.136-0.012-0.273-0.012-0.412 0-3.866 3.134-7 7-7 0.522 0 1.030 0.057 1.519 0.165v0c0.878-1.87 2.778-3.165 4.981-3.165 3.038 0 5.5 2.462 5.5 5.5 0 0.244-0.016 0.484-0.047 0.719zM23.999 9.599c0.001-0.033 0.001-0.066 0.001-0.099 0-2.485-2.015-4.5-4.5-4.5-1.749 0-3.265 0.998-4.010 2.456 1.253 0.477 2.334 1.304 3.124 2.362 0.839-0.518 1.828-0.817 2.886-0.817 0.9 0 1.749 0.216 2.499 0.599v0zM19.5 0c-0.276 0-0.5 0.216-0.5 0.495v2.009c0 0.274 0.232 0.495 0.5 0.495 0.276 0 0.5-0.216 0.5-0.495v-2.009c0-0.274-0.232-0.495-0.5-0.495v0zM26.233 2.789c-0.195-0.195-0.506-0.201-0.704-0.003l-1.421 1.421c-0.193 0.193-0.186 0.514 0.003 0.704 0.195 0.195 0.506 0.201 0.704 0.003l1.421-1.421c0.193-0.193 0.186-0.514-0.003-0.704v0zM29.022 9.522c0-0.276-0.216-0.5-0.495-0.5h-2.009c-0.274 0-0.495 0.232-0.495 0.5 0 0.276 0.216 0.5 0.495 0.5h2.009c0.274 0 0.495-0.232 0.495-0.5v0zM12.767 2.789c-0.195 0.195-0.201 0.506-0.003 0.704l1.421 1.421c0.193 0.193 0.514 0.186 0.704-0.003 0.195-0.195 0.201-0.506 0.003-0.704l-1.421-1.421c-0.193-0.193-0.514-0.186-0.704 0.003v0z"></path>
</symbol>
<symbol id="icon-clear-sky" viewBox="0 0 40 40">
<path d="M16 26c1.105 0 2 0.895 2 2v2c0 1.105-0.895 2-2 2s-2-0.895-2-2v-2c0-1.105 0.895-2 2-2zM16 6c-1.105 0-2-0.895-2-2v-2c0-1.105 0.895-2 2-2s2 0.895 2 2v2c0 1.105-0.895 2-2 2zM30 14c1.105 0 2 0.895 2 2s-0.895 2-2 2h-2c-1.105 0-2-0.895-2-2s0.895-2 2-2h2zM6 16c0 1.105-0.895 2-2 2h-2c-1.105 0-2-0.895-2-2s0.895-2 2-2h2c1.105 0 2 0.895 2 2zM25.899 23.071l1.414 1.414c0.781 0.781 0.781 2.047 0 2.828s-2.047 0.781-2.828 0l-1.414-1.414c-0.781-0.781-0.781-2.047 0-2.828s2.047-0.781 2.828 0zM6.101 8.929l-1.414-1.414c-0.781-0.781-0.781-2.047 0-2.828s2.047-0.781 2.828 0l1.414 1.414c0.781 0.781 0.781 2.047 0 2.828s-2.047 0.781-2.828 0zM25.899 8.929c-0.781 0.781-2.047 0.781-2.828 0s-0.781-2.047 0-2.828l1.414-1.414c0.781-0.781 2.047-0.781 2.828 0s0.781 2.047 0 2.828l-1.414 1.414zM6.101 23.071c0.781-0.781 2.047-0.781 2.828 0s0.781 2.047 0 2.828l-1.414 1.414c-0.781 0.781-2.047 0.781-2.828 0s-0.781-2.047 0-2.828l1.414-1.414z"></path>
<path d="M16 8c-4.418 0-8 3.582-8 8s3.582 8 8 8c4.418 0 8-3.582 8-8s-3.582-8-8-8zM16 21c-2.761 0-5-2.239-5-5s2.239-5 5-5 5 2.239 5 5-2.239 5-5 5z"></path>
</symbol>
<symbol id="icon-home" viewBox="0 0 40 40">
<path d="M8 20h-5v-10h-3l10-10 10 10h-3v10h-5v-6h-4v6z"></path>
</symbol>
<symbol id="icon-scattered-clouds" viewBox="0 0 40 40">
<path d="M32 20.548c0-2.565-1.771-4.716-4.156-5.296-0.101-4.022-3.389-7.252-7.433-7.252-2.369 0-4.477 1.109-5.839 2.835-0.764-0.987-1.959-1.624-3.303-1.624-2.307 0-4.176 1.871-4.176 4.179 0 0.201 0.015 0.399 0.043 0.592-0.351-0.063-0.711-0.098-1.080-0.098-3.344-0-6.054 2.712-6.054 6.058s2.71 6.058 6.054 6.058l20.508-0c3.004-0.006 5.438-2.444 5.438-5.451z"></path>
</symbol>
<symbol id="icon-overcast-clouds" viewBox="0 0 40 40">
<path d="M15.837 23.023c1.223 0.167 2.163 1.212 2.163 2.477 0 1.39-1.122 2.5-2.507 2.5h-7.987c-1.387 0-2.507-1.119-2.507-2.5 0-1.216 0.859-2.218 2-2.449v0c-0-0.017-0-0.034-0-0.051 0-1.657 1.343-3 3-3 0.927 0 1.756 0.42 2.306 1.081 0.223-0.053 0.455-0.081 0.694-0.081 1.315 0 2.432 0.846 2.837 2.023v0zM16.554 22.162c1.26 0.399 2.218 1.496 2.411 2.838v0h6.036c2.761 0 4.999-2.244 4.999-5 0-2.052-1.232-3.815-3.001-4.585v0c-0.046-2.998-2.49-5.415-5.499-5.415-1.059 0-2.047 0.299-2.886 0.817-1.276-1.71-3.316-2.817-5.614-2.817-3.866 0-7 3.134-7 7 0 0.138 0.004 0.275 0.012 0.412v0c-1.772 0.77-3.012 2.538-3.012 4.588 0 1.424 0.594 2.709 1.548 3.62 0.364-0.57 0.889-1.029 1.511-1.31v0c0.327-1.88 1.967-3.309 3.941-3.309 1.022 0 1.955 0.383 2.662 1.014 0.112-0.009 0.224-0.014 0.338-0.014 1.547 0 2.888 0.878 3.554 2.162v0 0zM27.425 12.823c0.923-0.367 1.575-1.263 1.575-2.323 0-1.265-0.939-2.31-2.163-2.477v0c-0.405-1.177-1.523-2.023-2.837-2.023-0.239 0-0.471 0.028-0.694 0.081-0.55-0.66-1.379-1.081-2.306-1.081-1.657 0-3 1.343-3 3 0 0.017 0 0.034 0 0.051v0c-0.232 0.047-0.451 0.126-0.655 0.231 0.558 0.361 1.067 0.79 1.518 1.275 0.806-0.358 1.698-0.557 2.637-0.557 2.636 0 4.905 1.569 5.925 3.823v0 0z"></path>
</symbol>
</defs>
</svg>
